<svg xmlns="http://www.w3.org/2000/svg" xmlns:xlink="http://www.w3.org/1999/xlink" width="79" height="85" viewBox="0 0 79 85">
    <defs>
        <path id="prefix__a" d="M0 0L79 0 79 85 0 85z"/>
    </defs>
    <g fill="none" fill-rule="evenodd">
        <path fill="#263041" d="M16.712 54.141l-.01-34.467c0-.633-.568-1.115-1.196-1.022-6.149.908-10.95 8.737-10.948 18.26.003 9.521 4.81 17.347 10.958 18.252.63.093 1.196-.39 1.196-1.023z"/>
        <mask id="prefix__b" fill="#fff">
            <use xlink:href="#prefix__a"/>
        </mask>
        <path fill="#263041" d="M63.656 29.079c-.647-1.402-1.004-2.518.115-3.902.681-.842.606-2.298.887-3.554.768.384 1.518.77 2.277 1.138 1.724.837 1.879 1.554.523 2.86-1.19 1.146-2.441 2.225-3.802 3.458zm-1.832-13.421l3.503 1.304c-2.365 2.075-2.81.162-3.798-.69l.295-.614zM41.14 35.789l-.12-.502c.65-.291 1.276-.665 1.956-.858 2.462-.7 4.427-1.94 5.75-4.216.364-.624 1.445-.976 2.26-1.132.245-.047.811.944 1.046 1.532.698 1.749 1.305 3.534 1.9 5.176H41.14zM71.092 0h-2.31c-4.358 3.13-9.358 4.481-14.639 4.8-1.786.107-3.702-.216-5.4-.791-2.013-.682-3.625-.305-5.204.841-2.756 2.001-5.611 3.893-8.207 6.08-2.153 1.814-4.2 3.83-5.917 6.039-1.972 2.537-3.58 5.355-5.242 8.112-.606 1.005-1.003 2.157-1.338 3.286-.8 2.694-1.468 5.425-2.261 8.12-1 3.399-.844 7.27.054 10.28l5.352 7.812c2.108.989 6.536.666 8.817.666H45.48v.147c.208-.027.44-.037.705-.028 2.607.077 5.225-.188 7.845-.313-.008.105.025.293-.03.321-3.742 1.979-5.743 5.48-7.897 8.808-.715 1.103-1.486 2.128-2.34 3.08v-8.595H40.14v11.823c-1.523 1.084-2.787 2.814-3.57 4.517-.594 1.291.333 2.313 1.347 3.087H1.14v1.404h38.84c.417.273.836.544 1.256.813H0v1.84h44.16c1.532.95 3.07 1.894 4.598 2.851h1.54c.174-.25.348-.5.52-.75 1.76-2.564 1.759-2.562-.302-4.815-.168-.183-.279-.414-.455-.682.44-.302.877-.556 1.257-.874 1.04-.871.9-1.604-.373-2.077-2.422-.899-2.954-2.404-1.032-4.043 2.298-1.961 4.996-3.465 7.464-5.242 1.953-1.405 3.819-2.925 5.724-4.393 1.195-.92 2.542-1.703 3.555-2.786 1.582-1.693 2.92-3.603 4.403-5.388.367-.442.843-.981 1.355-1.092 3.894-.84 4.177-3.291 3.839-6.682-.576-5.773-4.941-8.086-9.731-10.193 2.099-2.995 4.05-5.982 6.22-8.807 1.56-2.031 1.932-4.013.778-6.299-.588-1.166-1.07-2.384-1.44-3.221.9-1.308 1.546-2.517 2.454-3.49.88-.94 2.071-1.595 3.045-2.462.538-.48 1.199-1.089 1.311-1.724.722-4.068-2.21-8.431-6.21-9.454C72.14.388 71.62.177 71.091 0z" mask="url(#prefix__b)"/>
        <path fill="#263041" d="M2 58L52 58 52 56 2 56zM8 77L12 77 12 59 8 59zM24 77L28 77 28 59 24 59zM16 77L20 77 20 59 16 59zM32 77L36 77 36 59 32 59z"/>
    </g>
</svg>
